<svg width="79" height="102" viewBox="0 0 79 102" fill="none" xmlns="http://www.w3.org/2000/svg">
<path fill-rule="evenodd" clip-rule="evenodd" d="M18.092 22.9413C20.3358 19.3889 20.0518 17.412 23.8894 15.721C32.8135 11.7884 43.215 11.5352 51.4245 16.6072C51.6493 16.7461 54.6013 14.3351 54.7869 14.4678C54.9587 14.5908 55.1375 14.6982 55.3182 14.842C56.2644 14.5172 57.2715 13.8957 58.1208 13.5972L58.9117 13.3407C59.2741 13.1828 59.0493 13.2978 59.1986 13.1862C58.4059 13.2659 59.6142 10.7797 58.3743 9.97772C51.6028 5.59653 42.699 3.43579 34.7755 5.12499C27.4952 6.67716 23.2901 7.9212 18.267 12.2598C17.4875 12.9332 10.3248 18.3315 9.72202 19.515C7.68098 21.7784 1.15604 63.2884 11.4984 47.3027C13.3695 44.411 11.3873 32.6171 15.1688 26.2011C15.6377 25.4407 17.6943 23.6492 18.092 22.9413ZM63.7998 23.6159C65.5278 27.8957 67.0832 41.1177 66.9584 43.032C66.8831 44.1866 66.7378 47.8845 67.2744 48.9347C67.8594 48.816 71.1816 48.8907 71.236 48.2696C71.5168 45.0601 72.2475 45.1812 71.9987 41.0981C71.8039 37.901 71.9713 25.2512 67.7487 20.389C67.5008 20.1035 66.4827 18.9711 66.2943 18.7374L63.6915 16.2656L63.7998 23.6159Z" fill="#EABD46"/>
<path fill-rule="evenodd" clip-rule="evenodd" d="M48.4705 52.1589C47.9684 53.0929 46.1288 54.6798 45.1214 55.4277C42.2029 57.5942 39.0858 58.6023 35.2878 58.3826C33.8902 58.3017 31.1374 57.7987 30.3002 57.0728L32.9431 53.6027L36.9655 48.3806C38.077 46.8053 40.8274 45.621 42.6035 45.0184C45.4255 43.7144 49.4107 43.2786 50.1903 42.5892C50.7879 42.0609 51.2634 41.2622 50.7271 40.1958C49.8082 38.368 47.7389 39.228 45.8381 39.6962C43.9321 40.1658 42.5531 40.7994 40.902 41.3156C41.2023 39.8829 41.7199 38.5684 41.9404 36.8918C42.1507 35.2944 42.5446 33.4523 41.3123 32.6053C39.9344 31.6579 38.575 32.8069 38.3715 34.2645C38.1346 35.9613 38.0055 37.3186 37.6131 38.9006C36.5979 42.9897 34.347 46.252 31.8685 49.2148C31.395 49.7808 29.8729 51.7686 29.4229 52.0467C29.2142 52.4554 27.4031 54.429 27.0799 54.6486C26.5072 54.2863 25.392 52.2339 24.9933 51.301C23.7668 48.4313 23.4316 44.9113 24.311 41.8649C24.5406 41.0694 25.448 38.6344 26.0854 38.217C26.1636 37.834 26.3479 37.6597 26.6323 37.2589L28.6775 34.8828C29.6835 33.9259 30.6571 33.1519 31.9126 32.2744C36.0838 29.3588 43.3961 27.0979 48.3345 25.2801L56.8792 22.1438C56.7565 28.655 56.6912 33.5938 54.9635 39.5829C53.7547 43.7735 52.1243 47.6585 49.4982 50.96C49.236 51.2898 48.8007 52.0417 48.4705 52.1589ZM16.042 21.7421C15.6445 22.45 14.9019 23.3363 14.433 24.0965C10.9751 29.7041 9.19237 35.5442 9.5316 42.3283C9.66891 45.0733 9.50499 44.1799 9.50835 45.9208L9.22703 45.922L9.21567 44.8804C8.956 45.4945 9.36008 45.179 8.89929 45.374C8.66384 42.2562 8.288 39.0931 8.89337 35.8066C9.31273 33.5296 8.72044 33.7172 7.81029 33.719L7.52816 33.2065L7.42674 34.2472C6.80191 32.8453 10.7232 22.9163 13.087 20.5623C13.6897 19.3787 16.1784 16.6972 16.9577 16.024C21.9807 11.6852 25.8904 8.93732 33.1704 7.38515C41.0935 5.69593 49.7038 7.40577 56.4752 11.787C57.715 12.5892 58.4059 13.2659 59.1986 13.1862C61.0276 13.5089 61.6346 13.137 62.8124 14.4912C63.7466 15.5652 63.8071 16.4904 63.8 18.2783L64.3547 18.8544C66.0239 20.7483 67.6336 23.433 68.7495 25.7979C69.0358 26.4048 70.4539 28.7011 69.3437 28.8116C68.7526 28.8703 69.8595 28.5103 69.176 28.8246C69.0256 28.8937 68.9138 28.9219 68.8756 29.3542L68.3873 28.9714C68.3427 29.728 69.186 32.1292 69.4707 33.4315C69.8143 35.0036 70.0637 36.7656 70.1631 38.3938C70.4115 42.4769 69.9749 43.1077 69.6941 46.3173C69.6397 46.9385 69.6102 48.1364 69.025 48.2552C68.4882 47.2047 69.0737 44.1832 69.1489 43.0288C69.9393 30.9106 64.4075 24.9004 63.9993 23.2577L63.7998 23.6159C63.8379 25.0766 63.7023 33.6882 63.88 34.405C65.581 41.2694 64.591 47.5779 61.4982 53.5191C58.6806 58.9319 53.7394 63.2156 47.9352 65.1532C46.4873 65.6367 42.637 66.803 41.0793 66.5032C40.7697 66.7038 40.6288 66.6748 40.0549 66.6956C36.4038 66.8289 29.4932 65.5428 27.0315 63.5427C27.0664 62.9711 27.7417 61.334 28.0034 60.6636C28.6295 60.8142 29.5809 61.3107 30.2998 61.5589C34.6346 63.0552 39.46 62.7836 43.6201 60.989C45.3381 60.2481 47.3444 58.8965 47.7081 58.7496C47.8565 58.4877 49.4199 57.305 49.7366 56.9955C51.6148 55.1585 53.4734 52.6644 54.781 50.3153C59.1435 42.4798 60.7445 34.138 60.7586 24.8302C60.7679 18.8313 61.7816 14.849 57.8676 17.1486C53.7946 19.5415 39.046 23.7758 32.857 27.0532C25.7804 30.8004 20.1818 36.3561 19.9143 45.1905C19.9109 47.6997 20.1565 49.6119 20.9096 51.8248C22.0414 55.15 22.9414 55.6788 23.5121 56.822C23.3277 57.2035 21.5634 58.9805 21.1913 59.3118C20.2929 58.5701 19.4023 56.9668 18.6728 55.927C17.237 53.4376 16.0048 51.2345 15.0532 47.9654C12.2434 38.3116 15.6501 28.1329 21.967 22.0769C22.257 21.7991 22.4255 21.5262 22.7132 21.2712C24.479 19.7058 26.4394 18.3219 28.6406 17.2104C34.4331 14.2853 41.3789 13.8298 47.4754 16.0648C50.4238 17.1456 49.6892 17.3916 51.4245 16.6072C52.6764 16.0416 54.1857 15.4402 55.3182 14.842L54.2325 14.0812C46.0232 9.00895 36.6074 8.47214 27.6835 12.4049C23.846 14.096 18.2859 18.1899 16.042 21.7421ZM1.70663e-05 38.7941C0.0104301 44.1944 0.145647 47.8695 1.82195 52.9051C4.0395 59.567 7.13703 65.2265 11.1617 70.8821L14.9969 76.1727C17.3591 79.4938 20.7835 82.9819 23.2202 86.0505C24.4424 87.5119 36.6061 101.07 38.1956 101.907C39.7574 102.038 40.6607 102.223 41.8804 100.945C47.1299 95.448 52.1516 89.8232 57.2299 84.1628L57.9403 83.3112C60.3526 80.5399 62.6093 77.6495 64.8806 74.7592L66.1227 73.0046C68.5298 69.6925 71.5246 65.3394 73.2866 61.6539C74.9852 58.1011 75.5609 57.0901 76.9283 52.8802C78.5517 47.8825 78.7216 43.8936 78.7115 38.6469C78.707 36.3253 78.3064 34.3522 77.8759 32.1083L76.8808 28.2458C74.8003 21.8807 71.175 16.1112 66.5765 11.3972C60.8177 5.49411 53.8042 2.1928 45.8329 0.573477L40.3875 0L34.7712 0.319059C30.5473 0.713056 25.5766 2.42198 21.8194 4.28864C21.2858 4.55387 20.8095 4.91343 20.2756 5.20771C17.2299 6.88671 14.3334 9.12022 11.902 11.6318C11.487 12.0604 11.1668 12.3945 10.7502 12.8209L8.01372 16.2035C7.1483 17.3463 6.26308 18.6526 5.60404 19.9207C3.5777 23.8197 3.21036 24.2423 1.82185 28.4186C1.71643 28.7568 1.67104 29.0102 1.55112 29.335C0.8318 31.2831 -0.00435412 36.5272 1.70663e-05 38.7941Z" fill="#1F714B"/>
<path fill-rule="evenodd" clip-rule="evenodd" d="M55.3182 14.842C54.1857 15.4402 52.6764 16.0416 51.4245 16.6072C49.6892 17.3916 50.4238 17.1456 47.4754 16.0648C41.3789 13.8298 34.4331 14.2853 28.6406 17.2104C27.3231 17.8757 26.178 18.5902 25.0914 19.359C24.5555 19.7384 23.8803 20.2629 23.491 20.6118C23.1495 20.9173 23.0027 21.0146 22.7132 21.2712C22.4255 21.5262 22.257 21.7991 21.967 22.0769C15.6501 28.1329 12.2434 38.3116 15.0532 47.9654C16.0048 51.2345 17.237 53.4376 18.6728 55.927C19.0265 55.4742 18.0398 53.7554 18.4094 50.1579C18.5355 48.9313 19.1802 45.7062 19.9143 45.1905C20.1818 36.3561 25.7804 30.8004 32.857 27.0532C39.046 23.7758 53.7946 19.5415 57.8676 17.1486C61.7816 14.849 60.7679 18.8313 60.7586 24.8302C60.7445 34.138 59.1435 42.4798 54.781 50.3153C53.4734 52.6644 51.6148 55.1585 49.7366 56.9955C49.4199 57.305 47.8565 58.4877 47.7081 58.7496C46.0596 61.2136 41.997 65.025 39.1449 66.0295L38.3033 66.4226C39.1888 66.8366 40.1901 66.4096 41.0793 66.5032C42.637 66.803 46.4873 65.6367 47.9352 65.1532C53.7394 63.2156 58.6806 58.9319 61.4982 53.5191C64.591 47.5779 65.581 41.2694 63.88 34.405C63.7023 33.6882 63.8379 25.0766 63.7998 23.6159L63.8 18.2783C63.8071 16.4904 63.7466 15.5652 62.8124 14.4912C61.6346 13.137 61.0276 13.5089 59.1986 13.1862C59.0493 13.2978 59.2741 13.1828 58.9117 13.3407L58.1208 13.5972C57.2715 13.8957 56.2644 14.5172 55.3182 14.842Z" fill="white"/>
<path fill-rule="evenodd" clip-rule="evenodd" d="M26.0854 38.217C26.232 38.2567 25.9376 38.4167 26.3821 37.8235C27.7775 35.9606 31.1421 33.7128 33.2805 32.7557C33.7791 32.5325 36.0791 31.6298 36.3116 31.7341C33.674 33.0539 30.9096 36.8773 29.6705 39.5842C28.8937 41.2811 28.4223 43.4932 28.3605 45.5942C28.3117 47.2596 28.6974 50.9964 29.4229 52.0467C29.8729 51.7686 31.395 49.7808 31.8685 49.2148C34.347 46.252 36.5979 42.9897 37.6131 38.9006C38.0055 37.3186 38.1346 35.9613 38.3715 34.2645C38.575 32.8069 39.9344 31.6579 41.3123 32.6053C42.5446 33.4523 42.1507 35.2944 41.9404 36.8918C41.7199 38.5684 41.2023 39.8829 40.902 41.3156C42.5531 40.7994 43.9321 40.1658 45.8381 39.6962C47.7389 39.228 49.8082 38.368 50.7271 40.1958C51.2634 41.2622 50.7879 42.0609 50.1903 42.5892C49.4107 43.2786 45.4255 43.7144 42.6035 45.0184C42.7009 45.1175 42.4866 45.2284 43.4627 45.1893C43.9057 45.1716 44.1721 45.1589 44.6226 45.1901C42.8059 46.2282 41.1468 46.5086 38.9081 48.3975C37.7387 49.3845 35.6244 51.5528 34.7862 53.3703C35.4934 53.7921 38.2052 53.8193 39.2578 53.8146C42.5825 53.7995 45.7995 52.5557 48.2364 50.4585L49.6803 49.2187C49.51 49.8278 48.5619 51.7093 48.252 52.1579C48.4162 52.3581 48.1227 52.2792 48.4705 52.1589C48.8007 52.0417 49.236 51.2898 49.4982 50.96C50.5607 49.6242 51.4526 48.1568 52.2916 46.5842C53.3189 44.6588 54.3118 41.8418 54.9635 39.5829C56.6912 33.5938 56.7565 28.655 56.8792 22.1438L48.3345 25.2801C43.3961 27.0979 36.0838 29.3588 31.9126 32.2744C30.6571 33.1519 29.6835 33.9259 28.6775 34.8828L26.6323 37.2589C26.3479 37.6597 26.1636 37.834 26.0854 38.217Z" fill="#58B328"/>
<path fill-rule="evenodd" clip-rule="evenodd" d="M26.0854 38.217C25.5792 38.5487 25.3295 39.3291 25.0768 39.8795C24.7745 40.5384 24.5173 41.1507 24.311 41.8649C23.4316 44.9113 23.7668 48.4313 24.9933 51.301C25.392 52.2339 26.5072 54.2863 27.0799 54.6486C27.4031 54.429 29.2142 52.4554 29.4229 52.0467C28.6974 50.9964 28.3117 47.2596 28.3605 45.5942C28.4223 43.4932 28.8937 41.2811 29.6705 39.5842C30.9096 36.8773 33.674 33.0539 36.3116 31.7341C36.0791 31.6298 33.7791 32.5325 33.2805 32.7557C31.1421 33.7128 27.7775 35.9606 26.3821 37.8235C25.9376 38.4167 26.232 38.2567 26.0854 38.217Z" fill="#8CD188"/>
<path fill-rule="evenodd" clip-rule="evenodd" d="M48.4705 52.1589C48.1227 52.2792 48.4162 52.3581 48.252 52.1579C48.5619 51.7093 49.51 49.8278 49.6803 49.2187L48.2364 50.4585C45.7995 52.5557 42.5825 53.7995 39.2578 53.8146C38.2052 53.8193 35.4934 53.7921 34.7862 53.3703C35.6244 51.5528 37.7387 49.3845 38.9081 48.3975C41.1468 46.5086 42.8059 46.2282 44.6226 45.1901C44.1721 45.1589 43.9057 45.1716 43.4627 45.1893C42.4866 45.2284 42.7009 45.1175 42.6035 45.0184C40.8274 45.621 38.077 46.8053 36.9655 48.3806L35.6147 50.1487C34.7031 51.3375 33.8063 52.3947 32.9431 53.6027L30.3002 57.0728C31.1374 57.7987 33.8902 58.3017 35.2878 58.3826C39.0858 58.6023 42.2029 57.5942 45.1214 55.4277C46.1288 54.6798 47.9684 53.0929 48.4705 52.1589Z" fill="#8CD188"/>
<path fill-rule="evenodd" clip-rule="evenodd" d="M41.0793 66.5032C40.1901 66.4096 39.1888 66.8366 38.3033 66.4226L39.1449 66.0295C41.997 65.025 46.0596 61.2136 47.7081 58.7496C47.3444 58.8965 45.3381 60.2481 43.6201 60.989C42.0849 61.6514 40.4821 62.114 38.6878 62.3584C35.8807 62.7408 32.9633 62.4783 30.2998 61.5589C29.5809 61.3107 28.6295 60.8142 28.0034 60.6636C27.7417 61.334 27.0664 62.9711 27.0315 63.5427C29.33 65.4104 35.5801 66.6371 39.023 66.7044C39.3642 66.711 39.7136 66.7081 40.0549 66.6956C40.6288 66.6748 40.7697 66.7038 41.0793 66.5032Z" fill="#AFCEAE"/>
<path fill-rule="evenodd" clip-rule="evenodd" d="M18.6728 55.927C19.4023 56.9668 20.2929 58.5701 21.1913 59.3118C21.5634 58.9805 23.3277 57.2035 23.5121 56.822C22.9414 55.6788 22.0414 55.15 20.9096 51.8248C20.1565 49.6119 19.9109 47.6997 19.9143 45.1905C19.1802 45.7062 18.5355 48.9313 18.4094 50.1579C18.0398 53.7554 19.0265 55.4742 18.6728 55.927Z" fill="#AFCEAE"/>
</svg>
