<svg width="32" height="32" viewBox="0 0 32 32" fill="none" xmlns="http://www.w3.org/2000/svg">
<g clip-path="url(#clip0_43_122)">
<path d="M31.7351 27.3201L25.4764 21.0626C27.2904 18.8848 28.195 16.0914 28.0019 13.2635C27.8089 10.4357 26.533 7.7912 24.4398 5.88009C22.3466 3.96899 19.5972 2.93845 16.7635 3.00285C13.9298 3.06725 11.2301 4.22163 9.22586 6.22586C7.22163 8.23008 6.06725 10.9298 6.00285 13.7635C5.93845 16.5972 6.96899 19.3466 8.88009 21.4398C10.7912 23.533 13.4357 24.8089 16.2635 25.0019C19.0914 25.195 21.8848 24.2904 24.0626 22.4764L30.3201 28.7351C30.413 28.828 30.5233 28.9017 30.6447 28.952C30.7661 29.0023 30.8962 29.0282 31.0276 29.0282C31.159 29.0282 31.2891 29.0023 31.4105 28.952C31.5319 28.9017 31.6422 28.828 31.7351 28.7351C31.828 28.6422 31.9017 28.5319 31.952 28.4105C32.0023 28.2891 32.0282 28.159 32.0282 28.0276C32.0282 27.8962 32.0023 27.7661 31.952 27.6447C31.9017 27.5233 31.828 27.413 31.7351 27.3201ZM8.02763 14.0276C8.02763 12.2476 8.55547 10.5075 9.5444 9.0275C10.5333 7.54745 11.9389 6.3939 13.5835 5.71271C15.228 5.03152 17.0376 4.85329 18.7834 5.20056C20.5293 5.54783 22.1329 6.40499 23.3916 7.66367C24.6503 8.92234 25.5074 10.526 25.8547 12.2718C26.202 14.0176 26.0237 15.8272 25.3425 17.4718C24.6614 19.1163 23.5078 20.5219 22.0278 21.5109C20.5477 22.4998 18.8077 23.0276 17.0276 23.0276C14.6415 23.025 12.3538 22.0759 10.6666 20.3887C8.97934 18.7014 8.03028 16.4138 8.02763 14.0276Z" fill="#1F714B"/>
</g>
<defs>
<clipPath id="clip0_43_122">
<rect width="32" height="32" fill="white"/>
</clipPath>
</defs>
</svg>
